<svg width="24" height="25" viewBox="0 0 24 25" fill="none" xmlns="http://www.w3.org/2000/svg">
<path fill-rule="evenodd" clip-rule="evenodd" d="M11.6706 2.77068C11.6141 2.54148 11.4113 2.37609 11.1752 2.37609H6.21764C5.98419 2.37609 5.78569 2.21294 5.70759 1.99294C5.57664 1.62405 5.37955 1.27626 5.11149 0.973618C4.53196 0.359311 3.72061 0 2.88608 0H0.869302C0.394083 0 0 0.394083 0 0.869302C0 1.34452 0.394083 1.7386 0.869302 1.7386H2.88608C3.24539 1.7386 3.58152 1.88928 3.82493 2.14428C4.06833 2.41086 4.18424 2.75858 4.16106 3.11789L3.92924 5.95761C3.88288 6.50238 4.31174 6.95441 4.8565 6.95441H12.6037C13.0069 6.95441 13.2486 6.49829 13.0447 6.15046C12.434 5.10917 11.967 3.97352 11.6706 2.77068ZM15.1505 8.83954C15.0551 8.74653 14.9277 8.69302 14.7945 8.69302H4.54355C4.05674 8.69302 3.66266 9.06392 3.61629 9.53913L3.19903 14.5811C3.15924 15.0482 3.21687 15.5186 3.36828 15.9623C3.5197 16.406 3.76159 16.8135 4.07865 17.1589C4.39571 17.5042 4.78102 17.78 5.2102 17.9688C5.63938 18.1575 6.10307 18.2551 6.57192 18.2553H19.4608C21.1994 18.2553 22.7293 16.8297 22.8568 15.0911L23.0105 12.9161C23.0299 12.6421 22.8242 12.4048 22.5514 12.3728C19.6863 12.0372 17.1115 10.7516 15.1505 8.83954ZM18.8203 24.0361C18.4399 24.4165 17.924 24.6302 17.386 24.6302C16.8481 24.6302 16.3321 24.4165 15.9518 24.0361C15.5714 23.6557 15.3577 23.1398 15.3577 22.6018C15.3577 22.0639 15.5714 21.548 15.9518 21.1676C16.3321 20.7872 16.8481 20.5735 17.386 20.5735C17.924 20.5735 18.4399 20.7872 18.8203 21.1676C19.2007 21.548 19.4144 22.0639 19.4144 22.6018C19.4144 23.1398 19.2007 23.6557 18.8203 24.0361ZM9.54776 24.0361C9.16736 24.4165 8.65144 24.6302 8.11348 24.6302C7.57552 24.6302 7.0596 24.4165 6.67921 24.0361C6.29881 23.6557 6.08511 23.1398 6.08511 22.6018C6.08511 22.0639 6.29881 21.548 6.67921 21.1676C7.0596 20.7872 7.57552 20.5735 8.11348 20.5735C8.65144 20.5735 9.16736 20.7872 9.54776 21.1676C9.92815 21.548 10.1419 22.0639 10.1419 22.6018C10.1419 23.1398 9.92815 23.6557 9.54776 24.0361Z" fill="white"/>
</svg>
